<?xml version="1.0" encoding="UTF-8" standalone="no"?>
<!-- Created with Inkscape (http://www.inkscape.org/) -->

<svg
   xmlns:dc="http://purl.org/dc/elements/1.1/"
   xmlns:cc="http://creativecommons.org/ns#"
   xmlns:rdf="http://www.w3.org/1999/02/22-rdf-syntax-ns#"
   xmlns:svg="http://www.w3.org/2000/svg"
   xmlns="http://www.w3.org/2000/svg"
   xmlns:sodipodi="http://sodipodi.sourceforge.net/DTD/sodipodi-0.dtd"
   xmlns:inkscape="http://www.inkscape.org/namespaces/inkscape"
   width="210mm"
   height="297mm"
   viewBox="0 0 210 297"
   version="1.1"
   id="svg8"
   inkscape:version="0.92.1 r15371"
   sodipodi:docname="Daniele Primon altro 2.svg"
   inkscape:export-filename="/home/daniele/Immagini/Daniele Primon altro.svg.png"
   inkscape:export-xdpi="90"
   inkscape:export-ydpi="90">
  <defs
     id="defs2">
    <inkscape:tag
       id="Set 1" />
  </defs>
  <sodipodi:namedview
     id="base"
     pagecolor="#ffffff"
     bordercolor="#666666"
     borderopacity="1.0"
     inkscape:pageopacity="0.0"
     inkscape:pageshadow="2"
     inkscape:zoom="0.76209529"
     inkscape:cx="666.62455"
     inkscape:cy="926.09418"
     inkscape:document-units="mm"
     inkscape:current-layer="layer1"
     showgrid="false"
     inkscape:window-width="1280"
     inkscape:window-height="915"
     inkscape:window-x="0"
     inkscape:window-y="31"
     inkscape:window-maximized="1"
     inkscape:measure-start="0,0"
     inkscape:measure-end="0,0"
     showguides="false"
     inkscape:guide-bbox="true"
     inkscape:pagecheckerboard="true">
    <sodipodi:guide
       position="91.067328,192.60199"
       orientation="0,1"
       id="guide107"
       inkscape:locked="false" />
    <sodipodi:guide
       position="96.528726,208.63063"
       orientation="0,1"
       id="guide149"
       inkscape:locked="false" />
    <sodipodi:guide
       position="91.067331,191.74398"
       orientation="1,0"
       id="guide151"
       inkscape:locked="false" />
    <sodipodi:guide
       position="137.12201,197.59584"
       orientation="1,0"
       inkscape:locked="false"
       id="guide85" />
    <sodipodi:guide
       position="136.54607,190.65993"
       orientation="0,1"
       inkscape:locked="false"
       id="guide87" />
    <sodipodi:guide
       position="125.43463,219.40887"
       orientation="1,0"
       inkscape:locked="false"
       id="guide125" />
    <sodipodi:guide
       position="112.89209,227.8908"
       orientation="1,0"
       inkscape:locked="false"
       id="guide127" />
    <sodipodi:guide
       position="126.94361,219.44216"
       orientation="1,0"
       inkscape:locked="false"
       id="guide129" />
    <sodipodi:guide
       position="126.97317,224.21738"
       orientation="0,1"
       inkscape:locked="false"
       id="guide131" />
    <sodipodi:guide
       position="125.43437,225.72556"
       orientation="0,1"
       inkscape:locked="false"
       id="guide133" />
    <sodipodi:guide
       position="89.532835,251.25006"
       orientation="0,1"
       id="guide3828"
       inkscape:locked="false" />
    <sodipodi:guide
       position="89.532835,227.89081"
       orientation="1,0"
       id="guide3830"
       inkscape:locked="false" />
    <sodipodi:guide
       position="89.532833,227.89082"
       orientation="0,1"
       id="guide3836"
       inkscape:locked="false" />
    <sodipodi:guide
       position="146.7584,268.22235"
       orientation="0,1"
       id="guide3852"
       inkscape:locked="false" />
    <sodipodi:guide
       position="148.85982,266.12825"
       orientation="1,0"
       id="guide3854"
       inkscape:locked="false" />
    <sodipodi:guide
       position="146.7584,268.22235"
       orientation="1,0"
       id="guide3856"
       inkscape:locked="false" />
    <sodipodi:guide
       position="148.85982,266.12826"
       orientation="0,1"
       id="guide3858"
       inkscape:locked="false" />
    <sodipodi:guide
       position="150.34437,181.1843"
       orientation="0,1"
       id="guide181"
       inkscape:locked="false" />
    <sodipodi:guide
       position="152.45868,187.72553"
       orientation="1,0"
       id="guide185"
       inkscape:locked="false" />
    <sodipodi:guide
       position="153.30597,183.44911"
       orientation="0,1"
       id="guide187"
       inkscape:locked="false" />
    <sodipodi:guide
       position="150.35826,187.72553"
       orientation="1,0"
       id="guide3861"
       inkscape:locked="false" />
  </sodipodi:namedview>
  <metadata
     id="metadata5">
    <rdf:RDF>
      <cc:Work
         rdf:about="">
        <dc:format>image/svg+xml</dc:format>
        <dc:type
           rdf:resource="http://purl.org/dc/dcmitype/StillImage" />
        <dc:title />
      </cc:Work>
    </rdf:RDF>
  </metadata>
  <g
     inkscape:label="Livello 1"
     inkscape:groupmode="layer"
     id="layer1">
    <g
       id="g3748"
       transform="translate(-0.26440201)"
       inkscape:export-xdpi="52.189999"
       inkscape:export-ydpi="52.189999">
      <g
         id="text28"
         style="font-style:normal;font-weight:normal;font-size:32.06584549px;line-height:125%;font-family:'Bitstream Vera Sans';letter-spacing:0px;word-spacing:0px;fill:#000000;fill-opacity:1;stroke:none;stroke-width:2.91507673px;stroke-linecap:butt;stroke-linejoin:miter;stroke-opacity:1"
         transform="matrix(1.0002543,0,0,0.99974578,2.1166667,0)"
         aria-label="D">
        <path
           sodipodi:nodetypes="ccccccscscsccscscsccccccccc"
           inkscape:connector-curvature="0"
           id="path42"
           style="stroke-width:2.91507673px"
           d="m 89.196984,85.683812 -0.0046,2.70803 h 2.155095 l 0.03501,14.032148 0.0031,2.86599 0.0013,0.0128 h 4.933944 c 3.225371,0 6.674677,-1.29369 8.167327,-2.75503 1.50309,-1.46133 2.2898,-3.908901 2.2898,-7.061206 0,-3.13143 -0.57569,-5.528159 -2.07878,-6.979055 -2.05538,-1.989162 -3.49995,-2.860583 -8.800395,-2.860583 z m 0,-1.861826 h 6.497717 c 4.530129,0 7.854669,0.944648 9.973609,2.833944 2.11893,1.878858 3.1784,4.822402 3.1784,8.830633 0,4.029105 -1.06469,6.988307 -3.19406,8.877607 -2.12937,1.88929 -5.44869,2.83394 -9.957949,2.83394 h -6.497717 l -0.0046,-1.91532 v 0 l 2.193174,0.007 -0.0031,-2.86599 -2.185526,-3e-5 -0.0045,-14.031928 0.0045,-2.70803 z" />
      </g>
      <g
         id="g36">
        <g
           aria-label="P"
           transform="scale(0.97181965,1.0289975)"
           style="font-style:normal;font-weight:normal;font-size:16.70996666px;line-height:125%;font-family:'Bitstream Vera Sans';letter-spacing:0px;word-spacing:0px;fill:#000000;fill-opacity:1;stroke:none;stroke-width:1.51908779px;stroke-linecap:butt;stroke-linejoin:miter;stroke-opacity:1"
           id="text24">
          <path
             d="m 94.218243,87.440274 v 4.577291 h 5.354379 c 0.766958,0 1.359858,-0.19854 1.778698,-0.595619 0.41883,-0.397079 0.62825,-0.962781 0.62825,-1.697106 0,-0.728885 -0.20942,-1.291868 -0.62825,-1.688947 -0.41884,-0.397079 -1.01174,-0.595619 -1.778698,-0.595619 z m 2.65e-4,-1.55955 h 5.354114 c 1.365298,0 2.323668,0.480989 3.019918,1.101086 0.70169,0.614656 1.12493,1.620168 1.12493,2.811406 0,1.202117 -0.45944,2.178881 -1.16113,2.793538 -0.62385,0.443715 -1.47706,0.990361 -2.983718,0.990361 h -1.92763 v 0.0018 h -3.426484 z"
             style="stroke-width:1.51908779px"
             id="path38"
             inkscape:connector-curvature="0"
             sodipodi:nodetypes="ccscscsccscscscccc" />
        </g>
      </g>
    </g>
    <rect
       style="color:#000000;display:inline;overflow:visible;visibility:visible;opacity:0.98999999;fill:none;fill-opacity:1;fill-rule:nonzero;stroke:none;stroke-width:0.17507103;stroke-linecap:butt;stroke-linejoin:miter;stroke-miterlimit:4;stroke-dasharray:none;stroke-dashoffset:0;stroke-opacity:1;marker:none;enable-background:accumulate"
       id="rect72"
       width="23.359255"
       height="23.359255"
       x="89.219666"
       y="83.800674"
       inkscape:export-xdpi="52.189999"
       inkscape:export-ydpi="52.189999" />
    <text
       xml:space="preserve"
       style="font-style:normal;font-weight:normal;font-size:32.55710602px;line-height:125%;font-family:'Bitstream Vera Sans';letter-spacing:0px;word-spacing:0px;fill:#000000;fill-opacity:1;stroke:none;stroke-width:2.95973682px;stroke-linecap:butt;stroke-linejoin:miter;stroke-opacity:1"
       x="54.36272"
       y="134.69357"
       id="text49"><tspan
         sodipodi:role="line"
         id="tspan47"
         x="54.36272"
         y="134.69357"
         style="stroke-width:2.95973682px">D</tspan><tspan
         sodipodi:role="line"
         x="54.36272"
         y="175.38995"
         style="stroke-width:2.95973682px"
         id="tspan51" /></text>
    <rect
       style="color:#000000;display:inline;overflow:visible;visibility:visible;opacity:1;fill:#ffffff;fill-opacity:1;fill-rule:nonzero;stroke:none;stroke-width:0.44753981;stroke-linecap:butt;stroke-linejoin:miter;stroke-miterlimit:4;stroke-dasharray:none;stroke-dashoffset:0;stroke-opacity:1;marker:none;enable-background:accumulate"
       id="rect165"
       width="3.1482275"
       height="24.524593"
       x="-66.671463"
       y="110.26302"
       transform="scale(-1,1)" />
    <rect
       transform="matrix(0,-1,-1,0,0,0)"
       y="-79.609985"
       x="-124.29673"
       height="24.847767"
       width="3.1482275"
       id="rect1120"
       style="color:#000000;display:inline;overflow:visible;visibility:visible;opacity:1;fill:#ffffff;fill-opacity:1;fill-rule:nonzero;stroke:none;stroke-width:0.45047891;stroke-linecap:butt;stroke-linejoin:miter;stroke-miterlimit:4;stroke-dasharray:none;stroke-dashoffset:0;stroke-opacity:1;marker:none;enable-background:accumulate" />
    <text
       xml:space="preserve"
       style="font-style:normal;font-weight:normal;font-size:14.7073698px;line-height:125%;font-family:'Bitstream Vera Sans';letter-spacing:0px;word-spacing:0px;fill:#000000;fill-opacity:1;stroke:none;stroke-width:1.33703363px;stroke-linecap:butt;stroke-linejoin:miter;stroke-opacity:1"
       x="62.100338"
       y="128.44756"
       id="text163"><tspan
         sodipodi:role="line"
         id="tspan159"
         x="62.100338"
         y="128.44756"
         style="stroke-width:1.33703363px">P</tspan><tspan
         sodipodi:role="line"
         x="62.100338"
         y="146.83177"
         style="stroke-width:1.33703363px"
         id="tspan161" /></text>
    <rect
       inkscape:export-ydpi="52.189999"
       inkscape:export-xdpi="52.189999"
       y="113.04213"
       x="89.902878"
       height="23.359255"
       width="23.359255"
       id="rect4539"
       style="color:#000000;display:inline;overflow:visible;visibility:visible;opacity:0.98999999;fill:none;fill-opacity:1;fill-rule:nonzero;stroke:none;stroke-width:0.17507103;stroke-linecap:butt;stroke-linejoin:miter;stroke-miterlimit:4;stroke-dasharray:none;stroke-dashoffset:0;stroke-opacity:1;marker:none;enable-background:accumulate" />
    <g
       id="g4547"
       style="fill:#ececec"
       inkscape:export-xdpi="52"
       inkscape:export-ydpi="52">
      <g
         style="fill:#ececec"
         id="g4537"
         transform="translate(0.4188096,29.241457)"
         inkscape:export-xdpi="52.189999"
         inkscape:export-ydpi="52.189999">
        <g
           id="g4529"
           style="font-style:normal;font-weight:normal;font-size:32.06584549px;line-height:125%;font-family:'Bitstream Vera Sans';letter-spacing:0px;word-spacing:0px;fill:#ececec;fill-opacity:1;stroke:none;stroke-width:2.91507673px;stroke-linecap:butt;stroke-linejoin:miter;stroke-opacity:1"
           transform="matrix(1.0002543,0,0,0.99974578,2.1166667,0)"
           aria-label="D">
          <path
             sodipodi:nodetypes="ccccccscscsccscscsccccccccc"
             inkscape:connector-curvature="0"
             id="path4527"
             style="fill:#ececec;stroke-width:2.91507673px"
             d="m 89.196984,85.683812 -0.0046,2.70803 h 2.155095 l 0.03501,14.032148 0.0031,2.86599 0.0013,0.0128 h 4.933944 c 3.225371,0 6.674677,-1.29369 8.167327,-2.75503 1.50309,-1.46133 2.2898,-3.908901 2.2898,-7.061206 0,-3.13143 -0.57569,-5.528159 -2.07878,-6.979055 -2.05538,-1.989162 -3.49995,-2.860583 -8.800395,-2.860583 z m 0,-1.861826 h 6.497717 c 4.530129,0 7.854669,0.944648 9.973609,2.833944 2.11893,1.878858 3.1784,4.822402 3.1784,8.830633 0,4.029105 -1.06469,6.988307 -3.19406,8.877607 -2.12937,1.88929 -5.44869,2.83394 -9.957949,2.83394 h -6.497717 l -0.0046,-1.91532 v 0 l 2.193174,0.007 -0.0031,-2.86599 -2.185526,-3e-5 -0.0045,-14.031928 0.0045,-2.70803 z" />
        </g>
        <g
           style="fill:#ececec"
           id="g4535">
          <g
             aria-label="P"
             transform="scale(0.97181965,1.0289975)"
             style="font-style:normal;font-weight:normal;font-size:16.70996666px;line-height:125%;font-family:'Bitstream Vera Sans';letter-spacing:0px;word-spacing:0px;fill:#ececec;fill-opacity:1;stroke:none;stroke-width:1.51908779px;stroke-linecap:butt;stroke-linejoin:miter;stroke-opacity:1"
             id="g4533">
            <path
               d="m 94.218243,87.440274 v 4.577291 h 5.354379 c 0.766958,0 1.359858,-0.19854 1.778698,-0.595619 0.41883,-0.397079 0.62825,-0.962781 0.62825,-1.697106 0,-0.728885 -0.20942,-1.291868 -0.62825,-1.688947 -0.41884,-0.397079 -1.01174,-0.595619 -1.778698,-0.595619 z m 2.65e-4,-1.55955 h 5.354114 c 1.365298,0 2.323668,0.480989 3.019918,1.101086 0.70169,0.614656 1.12493,1.620168 1.12493,2.811406 0,1.202117 -0.45944,2.178881 -1.16113,2.793538 -0.62385,0.443715 -1.47706,0.990361 -2.983718,0.990361 h -1.92763 v 0.0018 h -3.426484 z"
               style="fill:#ececec;stroke-width:1.51908779px"
               id="path4531"
               inkscape:connector-curvature="0"
               sodipodi:nodetypes="ccscscsccscscscccc" />
          </g>
        </g>
      </g>
    </g>
    <rect
       inkscape:export-ydpi="52.189999"
       inkscape:export-xdpi="52.189999"
       y="83.704056"
       x="126.99837"
       height="23.359255"
       width="23.359255"
       id="rect53"
       style="color:#000000;display:inline;overflow:visible;visibility:visible;opacity:0.98999999;fill:none;fill-opacity:1;fill-rule:nonzero;stroke:none;stroke-width:0.17507103;stroke-linecap:butt;stroke-linejoin:miter;stroke-miterlimit:4;stroke-dasharray:none;stroke-dashoffset:0;stroke-opacity:1;marker:none;enable-background:accumulate" />
    <g
       id="g3840"
       transform="translate(-0.14230217)">
      <path
         d="m 91.53003,47.611267 -0.0042,10.715646 0.01392,-4.424565 h 2.100389 l 0.07628,15.207051 2.037701,0.02659 5.6e-5,-1.911004 v 0 l 0.0444,2e-6 h 2.856983 c 3.226141,0 6.676291,-1.293341 8.169291,-2.75429 1.50345,-1.46094 2.29035,-3.907856 2.29035,-7.059316 0,-3.130589 -0.57583,-5.526675 -2.07928,-6.977182 -2.05588,-1.98863 -3.5008,-2.859818 -8.802512,-2.859818 z m 0,-1.861326 h 6.499275 c 4.531225,0 7.856585,0.944393 9.976015,2.833182 2.11945,1.878356 3.17918,4.821108 3.17918,8.828264 0,4.028023 -1.06496,6.986431 -3.19485,8.875225 -2.12988,1.888783 -5.44999,2.833179 -9.960345,2.833179 h -2.275916 v 0.01619 l -4.228356,-1.93098 4.228356,1.914802 v 0.01617 l -2.0377,-0.02659 -2.186007,-2.08e-4 -0.0042,-10.782269 0.0042,-10.715636 z"
         style="font-style:normal;font-weight:normal;font-size:32.06584549px;line-height:125%;font-family:'Bitstream Vera Sans';letter-spacing:0px;word-spacing:0px;fill:#000000;fill-opacity:1;stroke:none;stroke-width:2.91503572px;stroke-linecap:butt;stroke-linejoin:miter;stroke-opacity:1"
         id="path42-7"
         inkscape:connector-curvature="0"
         sodipodi:nodetypes="cccccccccscscsccscscscccccccccc" />
      <path
         sodipodi:nodetypes="cccscscsccscscscccc"
         inkscape:connector-curvature="0"
         id="path38-5"
         style="font-style:normal;font-weight:normal;font-size:16.70996666px;line-height:125%;font-family:'Bitstream Vera Sans';letter-spacing:0px;word-spacing:0px;fill:#000000;fill-opacity:1;stroke:none;stroke-width:2.11446238px;stroke-linecap:butt;stroke-linejoin:miter;stroke-opacity:1"
         d="m 91.538716,51.808247 v 6.556014 0 h 7.242903 c 1.037464,0 1.839491,-0.284367 2.406051,-0.853099 0.56655,-0.568734 0.84984,-1.378984 0.84984,-2.430752 0,-1.043976 -0.28329,-1.850332 -0.84984,-2.419064 -0.56656,-0.568733 -1.368587,-0.853099 -2.406051,-0.853099 z m 3.62e-4,-2.233731 h 7.242541 c 1.846841,0 3.143231,0.688916 4.085051,1.577075 0.94918,0.880368 1.52169,2.320554 1.52169,4.026754 0,1.721781 -0.62148,3.120794 -1.57066,4.001161 -0.84389,0.635529 -1.99802,1.418485 -4.036081,1.418485 H 96.1741 v 0.0026 h -4.635022 z" />
    </g>
    <path
       d="m 150.35787,68.259365 -0.003,7.698414 1.54804,-7e-6 -0.0296,0.01902 0.0548,7.727421 1.46394,0.0191 4e-5,-1.372918 v 0 l 0.0319,2e-6 h 2.05253 c 2.31775,0 4.79643,-0.929172 5.86904,-1.978758 1.08012,-1.049579 1.64545,-2.807511 1.64545,-5.071606 0,-2.249101 -0.41369,-3.970515 -1.49381,-5.012599 -1.477,-1.428687 -2.51507,-2.054572 -6.32396,-2.054572 z m 0,-1.337228 h 4.66926 c 3.25535,0 5.64438,0.678478 7.16704,2.035436 1.52267,1.349462 2.28401,3.463616 2.28401,6.342467 0,2.893842 -0.7651,5.019244 -2.29527,6.376205 -1.53016,1.356954 -3.91542,2.035434 -7.15578,2.035434 h -1.63508 v 0.01163 l -3.03777,-1.387269 3.03777,1.375646 v 0.01162 l -1.46394,-0.0191 -1.57049,-1.5e-4 -0.003,-7.746278 0.003,-7.698407 z"
       style="font-style:normal;font-weight:normal;font-size:32.06584549px;line-height:125%;font-family:'Bitstream Vera Sans';letter-spacing:0px;word-spacing:0px;fill:#000000;fill-opacity:1;stroke:none;stroke-width:2.09424162px;stroke-linecap:butt;stroke-linejoin:miter;stroke-opacity:1"
       id="path3805"
       inkscape:connector-curvature="0"
       sodipodi:nodetypes="cccccccccscscsccscscscccccccccc" />
    <path
       sodipodi:nodetypes="cccscscsccscscscccc"
       inkscape:connector-curvature="0"
       id="path3807"
       style="font-style:normal;font-weight:normal;font-size:16.70996666px;line-height:125%;font-family:'Bitstream Vera Sans';letter-spacing:0px;word-spacing:0px;fill:#000000;fill-opacity:1;stroke:none;stroke-width:1.51908779px;stroke-linecap:butt;stroke-linejoin:miter;stroke-opacity:1"
       d="m 150.35487,71.247758 v 4.710021 0 h 5.2035 c 0.74534,0 1.32154,-0.204297 1.72857,-0.61289 0.40703,-0.408594 0.61055,-0.9907 0.61055,-1.746319 0,-0.750021 -0.20352,-1.329329 -0.61055,-1.737922 -0.40703,-0.408593 -0.98323,-0.61289 -1.72857,-0.61289 z m 2.6e-4,-1.604773 h 5.20324 c 1.32682,0 2.25818,0.494936 2.93481,1.133014 0.68192,0.63248 1.09323,1.667149 1.09323,2.89293 0,1.236975 -0.44649,2.242064 -1.12841,2.874544 -0.60627,0.456582 -1.43543,1.019079 -2.89963,1.019079 h -1.87331 v 0.0019 h -3.32993 z" />
    <rect
       inkscape:export-ydpi="52.189999"
       inkscape:export-xdpi="52.189999"
       y="83.800674"
       x="89.219666"
       height="23.359255"
       width="23.359255"
       id="rect3809"
       style="color:#000000;display:inline;overflow:visible;visibility:visible;opacity:0.98999999;fill:none;fill-opacity:1;fill-rule:nonzero;stroke:none;stroke-width:0.17507103;stroke-linecap:butt;stroke-linejoin:miter;stroke-miterlimit:4;stroke-dasharray:none;stroke-dashoffset:0;stroke-opacity:1;marker:none;enable-background:accumulate" />
    <rect
       inkscape:export-ydpi="52.189999"
       inkscape:export-xdpi="52.189999"
       y="45.763336"
       x="89.532837"
       height="23.359255"
       width="23.359255"
       id="rect3824"
       style="color:#000000;display:inline;overflow:visible;visibility:visible;opacity:0.98999999;fill:none;fill-opacity:1;fill-rule:nonzero;stroke:none;stroke-width:0.17507103;stroke-linecap:butt;stroke-linejoin:miter;stroke-miterlimit:4;stroke-dasharray:none;stroke-dashoffset:0;stroke-opacity:1;marker:none;enable-background:accumulate" />
    <rect
       style="color:#000000;display:inline;overflow:visible;visibility:visible;opacity:0.98999999;fill:none;fill-opacity:1;fill-rule:nonzero;stroke:none;stroke-width:0.17507103;stroke-linecap:butt;stroke-linejoin:miter;stroke-miterlimit:4;stroke-dasharray:none;stroke-dashoffset:0;stroke-opacity:1;marker:none;enable-background:accumulate"
       id="rect3826"
       width="23.359255"
       height="23.359255"
       x="89.532837"
       y="45.763336"
       inkscape:export-xdpi="52.189999"
       inkscape:export-ydpi="52.189999" />
    <g
       transform="translate(55.219687,-23.030587)"
       id="g3846">
      <path
         sodipodi:nodetypes="cccccccccscscsccscscscccccccccc"
         inkscape:connector-curvature="0"
         id="path3842"
         style="font-style:normal;font-weight:normal;font-size:32.06584549px;line-height:125%;font-family:'Bitstream Vera Sans';letter-spacing:0px;word-spacing:0px;fill:#000000;fill-opacity:1;stroke:none;stroke-width:2.91503572px;stroke-linecap:butt;stroke-linejoin:miter;stroke-opacity:1"
         d="m 91.53003,47.611267 -0.0042,10.715646 0.01288,-4.402008 h 2.10142 l 0.07629,15.184494 2.037701,0.02659 5.6e-5,-1.911004 v 0 l 0.0444,2e-6 h 2.856983 c 3.22614,0 6.67629,-1.293341 8.16929,-2.75429 1.50345,-1.46094 2.29035,-3.907856 2.29035,-7.059316 0,-3.130589 -0.57583,-5.526675 -2.07928,-6.977182 -2.05588,-1.98863 -3.5008,-2.859818 -8.802511,-2.859818 z m 0,-1.861326 h 6.499275 c 4.531225,0 7.856585,0.944393 9.976015,2.833182 2.11945,1.878356 3.17918,4.821108 3.17918,8.828264 0,4.028023 -1.06496,6.986431 -3.19485,8.875225 -2.12988,1.888783 -5.44999,2.833179 -9.960345,2.833179 h -2.275916 v 0.01619 l -4.228356,-1.93098 4.228356,1.914802 v 0.01617 l -2.0377,-0.02659 -2.186007,-2.08e-4 -0.0042,-10.782269 0.0042,-10.715636 z" />
      <path
         d="m 91.538716,51.808247 v 6.556014 h 4.233333 3.00957 c 1.037464,0 1.839491,-0.284367 2.406051,-0.853099 0.56655,-0.568734 0.84984,-1.378984 0.84984,-2.430752 0,-1.043976 -0.28329,-1.850332 -0.84984,-2.419064 -0.56656,-0.568733 -1.368587,-0.853099 -2.406051,-0.853099 z m 3.62e-4,-2.233731 h 7.242541 c 1.846841,0 3.143231,0.688916 4.085051,1.577075 0.94918,0.880368 1.52169,2.320554 1.52169,4.026754 0,1.721781 -0.62148,3.120794 -1.57066,4.001161 -0.84389,0.635529 -1.99802,1.418485 -4.036081,1.418485 H 96.1741 v 0.0026 h -0.401689 l -3.62e-4,-2.23633 h -4.233333 z"
         style="font-style:normal;font-weight:normal;font-size:16.70996666px;line-height:125%;font-family:'Bitstream Vera Sans';letter-spacing:0px;word-spacing:0px;fill:#000000;fill-opacity:1;stroke:none;stroke-width:2.11446238px;stroke-linecap:butt;stroke-linejoin:miter;stroke-opacity:1"
         id="path3844"
         inkscape:connector-curvature="0"
         sodipodi:nodetypes="cccscscsccscscscccccc" />
    </g>
    <rect
       style="color:#000000;display:inline;overflow:visible;visibility:visible;opacity:0.98999999;fill:none;fill-opacity:1;fill-rule:nonzero;stroke:none;stroke-width:0.17507103;stroke-linecap:butt;stroke-linejoin:miter;stroke-miterlimit:4;stroke-dasharray:none;stroke-dashoffset:0;stroke-opacity:1;marker:none;enable-background:accumulate"
       id="rect3848"
       width="23.359255"
       height="23.359255"
       x="144.89482"
       y="22.732748"
       inkscape:export-xdpi="52.189999"
       inkscape:export-ydpi="52.189999" />
    <rect
       inkscape:export-ydpi="52.189999"
       inkscape:export-xdpi="52.189999"
       y="22.732748"
       x="144.89482"
       height="23.359255"
       width="23.359255"
       id="rect3850"
       style="color:#000000;display:inline;overflow:visible;visibility:visible;opacity:0.98999999;fill:none;fill-opacity:1;fill-rule:nonzero;stroke:none;stroke-width:0.17507103;stroke-linecap:butt;stroke-linejoin:miter;stroke-miterlimit:4;stroke-dasharray:none;stroke-dashoffset:0;stroke-opacity:1;marker:none;enable-background:accumulate" />
    <g
       transform="translate(-0.14230217)"
       id="g3864">
      <path
         sodipodi:nodetypes="cccccccccscscsccscscscccccccccc"
         inkscape:connector-curvature="0"
         id="path3860"
         style="font-style:normal;font-weight:normal;font-size:32.06584549px;line-height:125%;font-family:'Bitstream Vera Sans';letter-spacing:0px;word-spacing:0px;fill:#000000;fill-opacity:1;stroke:none;stroke-width:2.91503572px;stroke-linecap:butt;stroke-linejoin:miter;stroke-opacity:1"
         d="m 91.53003,47.611267 -0.0042,10.715646 0.01392,-4.424565 h 2.100389 l 0.07628,15.207051 2.037701,0.02659 5.6e-5,-1.911004 v 0 l 0.0444,2e-6 h 2.856983 c 3.226141,0 6.676291,-1.293341 8.169291,-2.75429 1.50345,-1.46094 2.29035,-3.907856 2.29035,-7.059316 0,-3.130589 -0.57583,-5.526675 -2.07928,-6.977182 -2.05588,-1.98863 -3.5008,-2.859818 -8.802512,-2.859818 z m 0,-1.861326 h 6.499275 c 4.531225,0 7.856585,0.944393 9.976015,2.833182 2.11945,1.878356 3.17918,4.821108 3.17918,8.828264 0,4.028023 -1.06496,6.986431 -3.19485,8.875225 -2.12988,1.888783 -5.44999,2.833179 -9.960345,2.833179 h -2.275916 v 0.01619 l -4.228356,-1.93098 4.228356,1.914802 v 0.01617 l -2.0377,-0.02659 -2.186007,-2.08e-4 -0.0042,-10.782269 0.0042,-10.715636 z" />
      <path
         d="m 91.538716,51.808247 v 6.556014 0 h 7.242903 c 1.037464,0 1.839491,-0.284367 2.406051,-0.853099 0.56655,-0.568734 0.84984,-1.378984 0.84984,-2.430752 0,-1.043976 -0.28329,-1.850332 -0.84984,-2.419064 -0.56656,-0.568733 -1.368587,-0.853099 -2.406051,-0.853099 z m 3.62e-4,-2.233731 h 7.242541 c 1.846841,0 3.143231,0.688916 4.085051,1.577075 0.94918,0.880368 1.52169,2.320554 1.52169,4.026754 0,1.721781 -0.62148,3.120794 -1.57066,4.001161 -0.84389,0.635529 -1.99802,1.418485 -4.036081,1.418485 H 96.1741 v 0.0026 h -4.635022 z"
         style="font-style:normal;font-weight:normal;font-size:16.70996666px;line-height:125%;font-family:'Bitstream Vera Sans';letter-spacing:0px;word-spacing:0px;fill:#000000;fill-opacity:1;stroke:none;stroke-width:2.11446238px;stroke-linecap:butt;stroke-linejoin:miter;stroke-opacity:1"
         id="path3862"
         inkscape:connector-curvature="0"
         sodipodi:nodetypes="cccscscsccscscscccc" />
    </g>
    <g
       transform="translate(-0.38043214,-28.125774)"
       id="g3870">
      <path
         sodipodi:nodetypes="cccccccccscscsccscscscccccccccc"
         inkscape:connector-curvature="0"
         id="path3866"
         style="font-style:normal;font-weight:normal;font-size:32.06584549px;line-height:125%;font-family:'Bitstream Vera Sans';letter-spacing:0px;word-spacing:0px;fill:#000000;fill-opacity:1;stroke:none;stroke-width:2.91503572px;stroke-linecap:butt;stroke-linejoin:miter;stroke-opacity:1"
         d="m 91.53003,47.611267 -0.0042,10.715646 0.01392,-4.424565 h 2.100389 l 0.07628,15.207051 2.037701,0.02659 5.6e-5,-1.911004 v 0 l 0.0444,2e-6 h 2.856983 c 3.226141,0 6.676291,-1.293341 8.169291,-2.75429 1.50345,-1.46094 2.29035,-3.907856 2.29035,-7.059316 0,-3.130589 -0.57583,-5.526675 -2.07928,-6.977182 -2.05588,-1.98863 -3.5008,-2.859818 -8.802512,-2.859818 z m 0,-1.861326 h 6.499275 c 4.531225,0 7.856585,0.944393 9.976015,2.833182 2.11945,1.878356 3.17918,4.821108 3.17918,8.828264 0,4.028023 -1.06496,6.986431 -3.19485,8.875225 -2.12988,1.888783 -5.44999,2.833179 -9.960345,2.833179 h -2.275916 v 0.01619 l 7.31e-4,8e-6 -7.31e-4,-0.01619 v 0.01617 l -2.0377,-0.02659 -2.186007,-2.08e-4 -0.0042,-10.782269 0.0042,-10.715636 z" />
      <path
         d="m 91.538716,51.808247 v 6.556014 0 h 7.242903 c 1.037464,0 1.839491,-0.284367 2.406051,-0.853099 0.56655,-0.568734 0.84984,-1.378984 0.84984,-2.430752 0,-1.043976 -0.28329,-1.850332 -0.84984,-2.419064 -0.56656,-0.568733 -1.368587,-0.853099 -2.406051,-0.853099 z m 3.62e-4,-2.233731 h 7.242541 c 1.846841,0 3.143231,0.688916 4.085051,1.577075 0.94918,0.880368 1.52169,2.320554 1.52169,4.026754 0,1.721781 -0.62148,3.120794 -1.57066,4.001161 -0.84389,0.635529 -1.99802,1.418485 -4.036081,1.418485 H 96.1741 v 0.0026 h -4.635022 z"
         style="font-style:normal;font-weight:normal;font-size:16.70996666px;line-height:125%;font-family:'Bitstream Vera Sans';letter-spacing:0px;word-spacing:0px;fill:#000000;fill-opacity:1;stroke:none;stroke-width:2.11446238px;stroke-linecap:butt;stroke-linejoin:miter;stroke-opacity:1"
         id="path3868"
         inkscape:connector-curvature="0"
         sodipodi:nodetypes="cccscscsccscscscccc" />
    </g>
    <rect
       style="color:#000000;display:inline;overflow:visible;visibility:visible;opacity:0.98999999;fill:none;fill-opacity:1;fill-rule:nonzero;stroke:none;stroke-width:0.17507103;stroke-linecap:butt;stroke-linejoin:miter;stroke-miterlimit:4;stroke-dasharray:none;stroke-dashoffset:0;stroke-opacity:1;marker:none;enable-background:accumulate"
       id="rect3872"
       width="23.359255"
       height="23.359255"
       x="89.294708"
       y="17.637562"
       inkscape:export-xdpi="52.189999"
       inkscape:export-ydpi="52.189999" />
    <rect
       inkscape:export-ydpi="52.189999"
       inkscape:export-xdpi="52.189999"
       y="17.637562"
       x="89.294708"
       height="23.359255"
       width="23.359255"
       id="rect3874"
       style="color:#000000;display:inline;overflow:visible;visibility:visible;opacity:0.98999999;fill:none;fill-opacity:1;fill-rule:nonzero;stroke:none;stroke-width:0.17507103;stroke-linecap:butt;stroke-linejoin:miter;stroke-miterlimit:4;stroke-dasharray:none;stroke-dashoffset:0;stroke-opacity:1;marker:none;enable-background:accumulate" />
    <g
       id="g3880"
       transform="translate(-0.38043214,-28.125774)"
       style="fill:#ececec;fill-opacity:1">
      <path
         d="m 91.53003,47.611267 -0.0042,10.715646 0.01392,-4.424565 h 2.100389 l 0.07628,15.217713 2.03697,-2.62e-4 7.87e-4,-1.894814 v 0 l 0.0444,2e-6 h 2.856983 c 3.226141,0 6.676291,-1.293341 8.169291,-2.75429 1.50345,-1.46094 2.29035,-3.907856 2.29035,-7.059316 0,-3.130589 -0.57583,-5.526675 -2.07928,-6.977182 -2.05588,-1.98863 -3.5008,-2.859818 -8.802512,-2.859818 z m 0,-1.861326 h 6.499275 c 4.531225,0 7.856585,0.944393 9.976015,2.833182 2.11945,1.878356 3.17918,4.821108 3.17918,8.828264 0,4.028023 -1.06496,6.986431 -3.19485,8.875225 -2.12988,1.888783 -5.44999,2.833179 -9.960345,2.833179 h -2.275916 l -2.03697,2.72e-4 -2.186737,-2.3e-4 -10e-7,6e-6 2.186737,2.24e-4 -7.3e-4,-1.6e-5 -2.186007,-2.08e-4 -0.0042,-10.792931 0.0042,-10.715636 z"
         style="font-style:normal;font-weight:normal;font-size:32.06584549px;line-height:125%;font-family:'Bitstream Vera Sans';letter-spacing:0px;word-spacing:0px;fill:#ececec;fill-opacity:1;stroke:none;stroke-width:2.91503572px;stroke-linecap:butt;stroke-linejoin:miter;stroke-opacity:1"
         id="path3876"
         inkscape:connector-curvature="0"
         sodipodi:nodetypes="cccccccccscscsccscscscccccccccc" />
      <path
         sodipodi:nodetypes="cccscscsccscscscccc"
         inkscape:connector-curvature="0"
         id="path3878"
         style="font-style:normal;font-weight:normal;font-size:16.70996666px;line-height:125%;font-family:'Bitstream Vera Sans';letter-spacing:0px;word-spacing:0px;fill:#ececec;fill-opacity:1;stroke:none;stroke-width:2.11446238px;stroke-linecap:butt;stroke-linejoin:miter;stroke-opacity:1"
         d="m 91.538716,51.808247 v 6.556014 0 h 7.242903 c 1.037464,0 1.839491,-0.284367 2.406051,-0.853099 0.56655,-0.568734 0.84984,-1.378984 0.84984,-2.430752 0,-1.043976 -0.28329,-1.850332 -0.84984,-2.419064 -0.56656,-0.568733 -1.368587,-0.853099 -2.406051,-0.853099 z m 3.62e-4,-2.233731 h 7.242541 c 1.846841,0 3.143231,0.688916 4.085051,1.577075 0.94918,0.880368 1.52169,2.320554 1.52169,4.026754 0,1.721781 -0.62148,3.120794 -1.57066,4.001161 -0.84389,0.635529 -1.99802,1.418485 -4.036081,1.418485 H 96.1741 v 0.0026 h -4.635022 z" />
    </g>
    <g
       transform="translate(58.818542,57.488793)"
       id="g85"
       style="image-rendering:auto">
      <path
         sodipodi:nodetypes="cccccccccscscsccscscscccccccccc"
         inkscape:connector-curvature="0"
         id="path81"
         style="font-style:normal;font-weight:normal;font-size:32.06584549px;line-height:125%;font-family:'Bitstream Vera Sans';letter-spacing:0px;word-spacing:0px;fill:#000000;fill-opacity:1;stroke:none;stroke-width:2.91503572px;stroke-linecap:butt;stroke-linejoin:miter;stroke-opacity:1"
         d="m 91.53003,47.611267 -0.0042,10.715646 0.01392,-0.01382 h 2.100389 l 0.07628,10.796301 2.037701,0.02659 5.6e-5,-1.911004 v 0 l 0.0444,2e-6 h 2.856983 c 3.226141,0 6.676291,-1.293341 8.169291,-2.75429 1.50345,-1.46094 2.29035,-3.907856 2.29035,-7.059316 0,-3.130589 -0.57583,-5.526675 -2.07928,-6.977182 -2.05588,-1.98863 -3.5008,-2.859818 -8.802512,-2.859818 z m 0,-1.861326 h 6.499275 c 4.531225,0 7.856585,0.944393 9.976015,2.833182 2.11945,1.878356 3.17918,4.821108 3.17918,8.828264 0,4.028023 -1.06496,6.986431 -3.19485,8.875225 -2.12988,1.888783 -5.44999,2.833179 -9.960345,2.833179 h -2.275916 v 0.01619 l -4.228356,-1.93098 4.228356,1.914802 v 0.01617 l -2.0377,-0.02659 -2.186007,-2.08e-4 -0.0042,-10.782269 0.0042,-10.715636 z" />
      <path
         d="m 91.538716,51.808247 v 6.556014 0 h 7.242904 c 1.03746,0 1.83949,-0.284367 2.40605,-0.853099 0.56655,-0.568734 0.84984,-1.378984 0.84984,-2.430752 0,-1.043976 -0.28329,-1.850332 -0.84984,-2.419064 -0.56656,-0.568733 -1.36859,-0.853099 -2.40605,-0.853099 z m 3.62e-4,-2.233731 h 7.242542 c 1.84684,0 3.14323,0.688916 4.08505,1.577075 0.94918,0.880368 1.52169,2.320554 1.52169,4.026754 0,1.721781 -0.62148,3.120794 -1.57066,4.001161 -0.84389,0.635529 -1.99802,1.418485 -4.03608,1.418485 H 96.1741 v 0.0026 h -4.635022 z"
         style="font-style:normal;font-weight:normal;font-size:16.70996666px;line-height:125%;font-family:'Bitstream Vera Sans';letter-spacing:0px;word-spacing:0px;fill:#000000;fill-opacity:1;stroke:none;stroke-width:2.11446238px;stroke-linecap:butt;stroke-linejoin:miter;stroke-opacity:1"
         id="path83"
         inkscape:connector-curvature="0"
         sodipodi:nodetypes="cccscscsccscscscccc" />
    </g>
    <rect
       style="color:#000000;display:inline;overflow:visible;visibility:visible;opacity:0.98999999;fill:none;fill-opacity:1;fill-rule:nonzero;stroke:none;stroke-width:0.17507103;stroke-linecap:butt;stroke-linejoin:miter;stroke-miterlimit:4;stroke-dasharray:none;stroke-dashoffset:0;stroke-opacity:1;marker:none;enable-background:accumulate"
       id="rect87"
       width="23.359255"
       height="23.359255"
       x="148.49368"
       y="103.25213"
       inkscape:export-xdpi="52.189999"
       inkscape:export-ydpi="52.189999" />
    <rect
       inkscape:export-ydpi="52.189999"
       inkscape:export-xdpi="52.189999"
       y="103.25213"
       x="148.49368"
       height="23.359255"
       width="23.359255"
       id="rect89"
       style="color:#000000;display:inline;overflow:visible;visibility:visible;opacity:0.98999999;fill:none;fill-opacity:1;fill-rule:nonzero;stroke:none;stroke-width:0.17507103;stroke-linecap:butt;stroke-linejoin:miter;stroke-miterlimit:4;stroke-dasharray:none;stroke-dashoffset:0;stroke-opacity:1;marker:none;enable-background:accumulate" />
    <g
       id="g95"
       transform="translate(58.818542,57.488793)">
      <path
         d="m 91.53003,47.611267 -0.0042,10.715646 0.01389,-2.264816 2e-6,-4.276416 h 2.100389 l 2.9e-5,4.276416 h -2.10042 l -0.01424,2.264809 2.114626,-6e-6 0.07628,10.782492 2.037701,0.02659 5.6e-5,-1.911004 v 0 l 0.0444,2e-6 h 2.856983 c 3.226144,0 6.676294,-1.293341 8.169294,-2.75429 1.50345,-1.46094 2.29035,-3.907856 2.29035,-7.059316 0,-3.130589 -0.57583,-5.526675 -2.07928,-6.977182 -2.05588,-1.98863 -3.5008,-2.859818 -8.802515,-2.859818 z m 0,-1.861326 h 6.499275 c 4.531225,0 7.856585,0.944393 9.976015,2.833182 2.11945,1.878356 3.17918,4.821108 3.17918,8.828264 0,4.028023 -1.06496,6.986431 -3.19485,8.875225 -2.12988,1.888783 -5.44999,2.833179 -9.960345,2.833179 h -2.275916 v 0.01619 l -4.228356,-1.93098 4.228356,1.914802 v 0.01617 l -2.0377,-0.02659 -2.186007,-2.08e-4 -0.0042,-10.782269 0.0042,-10.715636 z"
         style="font-style:normal;font-weight:normal;font-size:32.06584549px;line-height:125%;font-family:'Bitstream Vera Sans';letter-spacing:0px;word-spacing:0px;fill:#000000;fill-opacity:1;stroke:none;stroke-width:2.91503572px;stroke-linecap:butt;stroke-linejoin:miter;stroke-opacity:1"
         id="path91"
         inkscape:connector-curvature="0"
         sodipodi:nodetypes="ccccccccccccccscscsccscscscccccccccc" />
    </g>
    <g
       id="g96"
       transform="translate(93.528172,-22.033712)">
      <path
         d="m 91.53003,47.611267 -0.0042,10.715646 0.01288,-6.518675 h 2.10142 l 0.07629,17.301161 -0.07897,0.02659 5.6e-5,-1.911004 v 0 l 0.0444,2e-6 h 4.97365 c 3.22614,0 6.67629,-1.293341 8.16929,-2.75429 1.50345,-1.46094 2.29035,-3.907856 2.29035,-7.059316 0,-3.130589 -0.57583,-5.526675 -2.07928,-6.977182 -2.05588,-1.98863 -3.5008,-2.859818 -8.802511,-2.859818 z m 0,-1.861326 h 6.499275 c 4.531225,0 7.856585,0.944393 9.976015,2.833182 2.11945,1.878356 3.17918,4.821108 3.17918,8.828264 0,4.028023 -1.06496,6.986431 -3.19485,8.875225 -2.12988,1.888783 -5.44999,2.833179 -9.960345,2.833179 h -4.392583 v 0.01619 l -2.111689,-1.93098 2.111689,1.914802 v 0.01617 l 0.07897,-0.02659 -2.186007,-2.08e-4 -0.0042,-10.782269 0.0042,-10.715636 z"
         style="font-style:normal;font-weight:normal;font-size:32.06584549px;line-height:125%;font-family:'Bitstream Vera Sans';letter-spacing:0px;word-spacing:0px;fill:#000000;fill-opacity:1;stroke:none;stroke-width:2.91503572px;stroke-linecap:butt;stroke-linejoin:miter;stroke-opacity:1"
         id="path92"
         inkscape:connector-curvature="0"
         sodipodi:nodetypes="cccccccccscscsccscscscccccccccc" />
      <path
         sodipodi:nodetypes="cccscscsccscscscccccc"
         inkscape:connector-curvature="0"
         id="path94"
         style="font-style:normal;font-weight:normal;font-size:16.70996666px;line-height:125%;font-family:'Bitstream Vera Sans';letter-spacing:0px;word-spacing:0px;fill:#000000;fill-opacity:1;stroke:none;stroke-width:2.11446238px;stroke-linecap:butt;stroke-linejoin:miter;stroke-opacity:1"
         d="m 91.538716,51.808247 v 6.556014 h 4.233333 3.00957 c 1.037464,0 1.839491,-0.284367 2.406051,-0.853099 0.56655,-0.568734 0.84984,-1.378984 0.84984,-2.430752 0,-1.043976 -0.28329,-1.850332 -0.84984,-2.419064 -0.56656,-0.568733 -1.368587,-0.853099 -2.406051,-0.853099 z m 3.62e-4,-2.233731 h 7.242541 c 1.846841,0 3.143231,0.688916 4.085051,1.577075 0.94918,0.880368 1.52169,2.320554 1.52169,4.026754 0,1.721781 -0.62148,3.120794 -1.57066,4.001161 -0.84389,0.635529 -1.99802,1.418485 -4.036081,1.418485 H 96.1741 v 0.0026 h -0.401689 l -3.62e-4,-2.23633 h -4.233333 z" />
    </g>
    <rect
       inkscape:export-ydpi="52.189999"
       inkscape:export-xdpi="52.189999"
       y="23.729624"
       x="183.20331"
       height="23.359255"
       width="23.359255"
       id="rect98"
       style="color:#000000;display:inline;overflow:visible;visibility:visible;opacity:0.98999999;fill:none;fill-opacity:1;fill-rule:nonzero;stroke:none;stroke-width:0.17507103;stroke-linecap:butt;stroke-linejoin:miter;stroke-miterlimit:4;stroke-dasharray:none;stroke-dashoffset:0;stroke-opacity:1;marker:none;enable-background:accumulate" />
    <rect
       style="color:#000000;display:inline;overflow:visible;visibility:visible;opacity:0.98999999;fill:none;fill-opacity:1;fill-rule:nonzero;stroke:none;stroke-width:0.17507103;stroke-linecap:butt;stroke-linejoin:miter;stroke-miterlimit:4;stroke-dasharray:none;stroke-dashoffset:0;stroke-opacity:1;marker:none;enable-background:accumulate"
       id="rect100"
       width="23.359255"
       height="23.359255"
       x="183.20331"
       y="23.729624"
       inkscape:export-xdpi="52.189999"
       inkscape:export-ydpi="52.189999" />
  </g>
</svg>
